<svg width="25" height="24" viewBox="0 0 25 24" fill="none" xmlns="http://www.w3.org/2000/svg">
<mask id="mask0_373_2992" style="mask-type:alpha" maskUnits="userSpaceOnUse" x="0" y="0" width="25" height="24">
<g clip-path="url(#clip0_373_2992)">
<path d="M4.94006 7.87547C6.2985 4.6139 9.48084 2.48578 13.0138 2.4764C16.8215 2.45625 20.2072 4.89515 21.3946 8.51343C22.5815 12.1317 21.2985 16.1025 18.2188 18.3417C15.1391 20.5809 10.9663 20.5777 7.89037 18.3333L5.14771 21.0759C4.86881 21.3544 4.41693 21.3544 4.13803 21.0759C3.85959 20.797 3.85959 20.3452 4.13803 20.0662L6.79537 17.4089C4.31334 14.8945 3.58209 11.1366 4.94053 7.875L4.94006 7.87547ZM6.21365 14.0658C7.35412 16.8141 10.0387 18.6042 13.0143 18.6V18.562C17.0526 18.5569 20.331 15.2953 20.3572 11.257C20.361 8.2814 18.5708 5.59687 15.823 4.4564C13.0747 3.31594 9.91022 3.94453 7.806 6.04828C5.70178 8.1525 5.07365 11.317 6.21412 14.0653L6.21365 14.0658Z" fill="black"/>
</g>
</mask>
<g mask="url(#mask0_373_2992)">
<rect x="0.5" width="24" height="24" fill="#FFD700"/>
</g>
<defs>
<clipPath id="clip0_373_2992">
<rect width="24" height="24" fill="white" transform="translate(0.5)"/>
</clipPath>
</defs>
</svg>
