<svg width="24" height="25" viewBox="0 0 24 25" fill="none" xmlns="http://www.w3.org/2000/svg">
<path d="M21.7284 8.21843C21.0398 7.42625 20.0428 6.96922 18.9933 6.96453H7.10531L6.87703 6.17797C6.41813 4.66625 5.03766 3.6214 3.45797 3.59047L3.40078 3.57922H2.26125C1.78875 3.57922 1.40625 3.96172 1.40625 4.43422C1.40625 4.90672 1.78875 5.28922 2.26125 5.28922H3.40078C4.26375 5.29672 5.01469 5.87937 5.23594 6.71422L8.11922 16.4361C8.58469 17.968 9.99469 19.0175 11.5955 19.0236H18.2972C20.1202 19.0039 21.6488 17.6408 21.8761 15.8323L22.56 11.1139C22.7189 10.0737 22.4147 9.01578 21.728 8.2189L21.7284 8.21843ZM20.8734 10.8969L20.1895 15.6266C20.04 16.558 19.2408 17.2466 18.2977 17.2564H11.5959C10.7494 17.2564 10.0027 16.7005 9.76078 15.8886L7.61766 8.66281H19.0148C19.5731 8.67125 20.1 8.92343 20.4567 9.35328C20.8134 9.78265 20.9658 10.3466 20.8725 10.8969H20.873H20.8734ZM12.4734 21.5305C12.4734 22.16 11.9634 22.67 11.3339 22.67C10.7044 22.67 10.1944 22.16 10.1944 21.5305C10.1944 20.9009 10.7044 20.3909 11.3339 20.3909C11.9634 20.3909 12.4734 20.9009 12.4734 21.5305ZM19.312 21.5305C19.312 22.16 18.802 22.67 18.1725 22.67C17.543 22.67 17.033 22.16 17.033 21.5305C17.033 20.9009 17.543 20.3909 18.1725 20.3909C18.802 20.3909 19.312 20.9009 19.312 21.5305Z" fill="#FFD700"/>
</svg>
