<svg width="33" height="32" viewBox="0 0 33 32" fill="none" xmlns="http://www.w3.org/2000/svg">
<g clip-path="url(#clip0_393_4374)">
<path d="M31.3844 9.87779C30.67 9.16331 29.701 8.76184 28.6906 8.76168H27.9283V7.23835C27.9284 6.73803 27.8299 6.24261 27.6385 5.78036C27.4471 5.31812 27.1665 4.8981 26.8128 4.5443C26.459 4.1905 26.039 3.90985 25.5768 3.71837C25.1146 3.5269 24.6192 3.42834 24.1189 3.42834H4.30944C3.80913 3.42834 3.31372 3.5269 2.8515 3.71837C2.38929 3.90985 1.96931 4.1905 1.61556 4.5443C1.26182 4.8981 0.981227 5.31812 0.789817 5.78036C0.598407 6.24261 0.499927 6.73803 0.5 7.23835V19.4283C0.499927 19.9287 0.598407 20.4241 0.789817 20.8863C0.981227 21.3486 1.26182 21.7686 1.61556 22.1224C1.96931 22.4762 2.38929 22.7568 2.8515 22.9483C3.31372 23.1398 3.80913 23.2383 4.30944 23.2383H5.07167V24.7617C5.07159 25.262 5.17007 25.7574 5.36148 26.2197C5.55289 26.6819 5.83348 27.1019 6.18723 27.4557C6.54098 27.8095 6.96095 28.0902 7.42317 28.2817C7.88539 28.4731 8.3808 28.5717 8.88111 28.5717H28.6906C29.1909 28.5717 29.6863 28.4731 30.1485 28.2817C30.6107 28.0902 31.0307 27.8095 31.3844 27.4557C31.7382 27.1019 32.0188 26.6819 32.2102 26.2197C32.4016 25.7574 32.5001 25.262 32.5 24.7617V12.5717C32.4999 11.5614 32.0986 10.5924 31.3844 9.87779ZM2.69333 21.0445C2.26564 20.6152 2.02585 20.0337 2.02667 19.4278V7.23835C2.02652 6.63256 2.26687 6.0515 2.69491 5.62284C3.12295 5.19417 3.70366 4.95297 4.30944 4.95223H24.1189C24.4191 4.95216 24.7164 5.01124 24.9938 5.1261C25.2712 5.24097 25.5233 5.40936 25.7356 5.62166C25.9479 5.83396 26.1163 6.086 26.2311 6.3634C26.346 6.6408 26.4051 6.93811 26.405 7.23835V8.76168H6.595C6.39648 8.76704 6.20789 8.84967 6.06938 8.99197C5.93086 9.13428 5.85335 9.32503 5.85335 9.52362C5.85335 9.72221 5.93086 9.91296 6.06938 10.0553C6.20789 10.1976 6.39648 10.2802 6.595 10.2856H26.405V19.4283C26.4051 19.7286 26.346 20.0259 26.2311 20.3033C26.1163 20.5807 25.9479 20.8327 25.7356 21.045C25.5233 21.2573 25.2712 21.4257 24.9938 21.5406C24.7164 21.6554 24.4191 21.7145 24.1189 21.7145H4.30944C3.70329 21.7144 3.12198 21.4736 2.69333 21.045V21.0445ZM30.9761 24.7611C30.9762 25.0613 30.9171 25.3586 30.8023 25.6359C30.6875 25.9133 30.5191 26.1653 30.3069 26.3776C30.0946 26.5899 29.8427 26.7583 29.5653 26.8732C29.288 26.9881 28.9907 27.0472 28.6906 27.0472H8.88111C8.58087 27.0473 8.28356 26.9882 8.00617 26.8734C7.72877 26.7585 7.47672 26.5901 7.26442 26.3778C7.05212 26.1655 6.88373 25.9135 6.76887 25.6361C6.65401 25.3587 6.59493 25.0614 6.595 24.7611V23.2383H24.1189C24.6192 23.2383 25.1146 23.1398 25.5768 22.9483C26.039 22.7568 26.459 22.4762 26.8128 22.1224C27.1665 21.7686 27.4471 21.3486 27.6385 20.8863C27.8299 20.4241 27.9284 19.9287 27.9283 19.4283V15.5111H30.9761V24.7611ZM30.9761 13.9867H27.9283V10.2856H28.6906C28.9907 10.2856 29.288 10.3447 29.5653 10.4596C29.8427 10.5745 30.0946 10.7429 30.3069 10.9552C30.5191 11.1675 30.6875 11.4195 30.8023 11.6969C30.9171 11.9742 30.9762 12.2715 30.9761 12.5717V13.9867Z" fill="black"/>
</g>
<defs>
<clipPath id="clip0_393_4374">
<rect width="32" height="32" fill="white" transform="translate(0.5)"/>
</clipPath>
</defs>
</svg>
