<svg width="33" height="32" viewBox="0 0 33 32" fill="none" xmlns="http://www.w3.org/2000/svg">
<path d="M16.4999 30.845C16.3768 30.845 16.2555 30.8148 16.1468 30.7568L9.86303 27.4056C8.01305 26.4217 6.46597 24.9526 5.38786 23.1559C4.30976 21.3592 3.74135 19.3028 3.74366 17.2075V1.59998C3.74366 1.40106 3.82268 1.2103 3.96333 1.06965C4.10398 0.928993 4.29475 0.849976 4.49366 0.849976H28.5062C28.7051 0.849976 28.8958 0.928993 29.0365 1.06965C29.1771 1.2103 29.2562 1.40106 29.2562 1.59998V17.2081C29.2585 19.3036 28.69 21.3601 27.6118 23.1569C26.5335 24.9537 24.9863 26.423 23.1362 27.4069L16.8524 30.7568C16.7439 30.8147 16.6229 30.8449 16.4999 30.845ZM5.24366 2.34998V17.2081C5.24133 19.0315 5.73574 20.8211 6.6738 22.3847C7.61186 23.9484 8.95813 25.2269 10.568 26.0831L16.4999 29.245L22.4312 26.0831C24.0411 25.2269 25.3875 23.9484 26.3257 22.3848C27.2638 20.8212 27.7584 19.0316 27.7562 17.2081V2.34998H5.24366ZM14.6187 18.7981L23.1437 10.3443C23.2734 10.2021 23.3434 10.0153 23.3392 9.82286C23.3351 9.63037 23.257 9.44686 23.1213 9.31031C22.9856 9.17377 22.8025 9.09466 22.61 9.08936C22.4176 9.08406 22.2305 9.15298 22.0874 9.28185L14.0949 17.2069L11.193 14.3056C11.0521 14.1647 10.861 14.0855 10.6618 14.0855C10.4625 14.0855 10.2714 14.1647 10.1305 14.3056C9.98964 14.4465 9.91048 14.6376 9.91048 14.8369C9.91048 15.0361 9.98964 15.2272 10.1305 15.3681L13.5624 18.7956C13.703 18.9355 13.8932 19.014 14.0915 19.014C14.2898 19.014 14.48 18.9355 14.6205 18.7956L14.6187 18.7981Z" fill="black"/>
</svg>
