<svg width="33" height="32" viewBox="0 0 33 32" fill="none" xmlns="http://www.w3.org/2000/svg">
<path d="M24.3521 18.0237C24.3581 18.2019 24.3506 18.3804 24.3295 18.5574C24.2811 18.9604 24.1951 19.358 24.0727 19.7449C23.8096 20.5981 23.1021 21.1718 22.6402 21.4774C22.1546 21.7987 21.5271 22.0918 20.9646 22.1743C20.3379 22.2848 19.6962 22.278 19.0721 22.1543C18.3846 22.0199 17.6258 21.7424 16.6758 21.3149H16.6721C13.6558 19.9487 11.6514 17.0649 11.2296 16.4587L11.2152 16.4374L11.1914 16.4031L11.1758 16.3812C10.8741 15.9757 10.6111 15.5427 10.3902 15.0881C10.0702 14.4337 9.71205 13.4837 9.71205 12.4399C9.71205 10.4537 10.7233 9.39245 11.1239 8.98307C11.3544 8.72331 11.6367 8.51457 11.9526 8.37024C12.2685 8.22591 12.611 8.14918 12.9583 8.14495H13.5064C13.5733 8.14484 13.6402 8.14943 13.7064 8.1587C14.0651 8.17325 14.4121 8.29015 14.7064 8.49557C15.1177 8.78495 15.3521 9.19557 15.5039 9.55057C15.5139 9.5739 15.5233 9.59765 15.5321 9.62182C15.6339 9.89995 15.8283 10.3974 16.0108 10.8537C16.1014 11.0799 16.1864 11.2912 16.2527 11.4518C16.2977 11.5618 16.3264 11.6299 16.3408 11.6637C16.3552 11.6974 16.3539 11.6956 16.3508 11.6887L16.3564 11.7006C16.4408 11.8718 16.8339 12.6687 16.3689 13.5274C16.2297 13.8087 16.0649 14.0765 15.8764 14.3274C16.1707 14.7672 16.5247 15.164 16.9283 15.5062C17.3267 15.8296 17.7573 16.1113 18.2133 16.3468C18.3521 16.1687 18.4502 16.0343 18.4827 15.9793C18.7364 15.5643 19.1789 15.1512 19.8408 15.0662C20.2259 15.025 20.6149 15.0899 20.9658 15.2537C21.2696 15.3868 22.7371 16.1187 23.0183 16.2624L23.1333 16.3206L23.1552 16.3312C23.2877 16.3956 23.4167 16.4672 23.5414 16.5456C23.8457 16.7375 24.0825 17.0196 24.2189 17.3524C24.3023 17.5667 24.3473 17.7939 24.3521 18.0237ZM14.2377 14.4612C14.0752 14.1699 14.1839 14.0524 14.4077 13.8118C14.6815 13.5309 14.9082 13.2076 15.0789 12.8543C15.1883 12.6668 15.1152 12.4793 15.0421 12.3306C14.9689 12.1818 14.3839 10.7237 14.1671 10.1256C13.9564 9.63307 13.7702 9.62245 13.6096 9.61307C13.5758 9.61183 13.5422 9.60828 13.5089 9.60245H12.9608C12.8136 9.60721 12.6692 9.64309 12.5369 9.70773C12.4046 9.77236 12.2875 9.86429 12.1933 9.97745L12.1714 9.99932C11.8664 10.3118 11.1714 11.0212 11.1714 12.4443C11.1714 13.9018 12.1952 15.3193 12.3408 15.5068C12.3533 15.5224 12.3777 15.5574 12.4133 15.6093C12.8102 16.1793 14.6283 18.7931 17.2764 19.9924C19.1046 20.8143 19.8358 20.8893 20.7495 20.7424C21.2983 20.6674 22.4683 20.0324 22.687 19.3218C22.9058 18.6112 22.9427 18.0512 22.8696 17.9018C22.8389 17.8068 22.7027 17.7387 22.4833 17.6287L22.3583 17.5662C22.0658 17.4162 20.6402 16.7062 20.3846 16.5943C20.1289 16.4824 19.9089 16.4449 19.7264 16.7437C19.5439 17.0424 18.9952 17.7156 18.8121 17.9024C18.6289 18.0893 18.4833 18.1268 18.1908 17.9774C16.4683 17.1124 15.3714 16.4024 14.2377 14.4587V14.4612ZM4.86268 27.1387L6.1908 22.3856C6.24277 22.1993 6.2571 22.0045 6.23295 21.8127C6.20881 21.6208 6.14667 21.4357 6.05018 21.2681C5.01282 19.4683 4.46707 17.4273 4.46768 15.3499C4.46768 8.74245 9.96018 3.3237 16.7583 3.3237C20.0514 3.3237 23.1389 4.57932 25.4577 6.85807C27.7989 9.1587 29.1764 12.1781 29.1764 15.3581C29.1764 21.9506 23.5652 27.3843 16.7583 27.3843H16.7521C14.7326 27.3869 12.7429 26.8987 10.9539 25.9618C10.6343 25.7938 10.2636 25.7505 9.91393 25.8406L4.86268 27.1387ZM3.23268 29.0562L4.41268 28.7543L10.2789 27.2449C12.2769 28.2913 14.4992 28.8367 16.7546 28.8343H16.7608C24.3233 28.8343 30.6358 22.7949 30.6358 15.3537C30.6358 11.7449 29.0733 8.36245 26.482 5.81807C23.8908 3.2737 20.4327 1.86682 16.7633 1.86682C9.18768 1.86682 3.0158 7.90932 3.0158 15.3474C3.01507 17.6795 3.62764 19.9707 4.79205 21.9912L3.22143 27.6131L2.90893 28.7281C2.89621 28.7732 2.89561 28.8208 2.9072 28.8662C2.91879 28.9116 2.94216 28.9532 2.97494 28.9866C3.00772 29.0201 3.04875 29.0443 3.0939 29.0569C3.13904 29.0694 3.1867 29.0698 3.23205 29.0581" fill="black"/>
</svg>
