<svg width="33" height="32" viewBox="0 0 33 32" fill="none" xmlns="http://www.w3.org/2000/svg">
<g clip-path="url(#clip0_393_4369)">
<path d="M30.9065 9.80652C30.4014 9.30143 29.8017 8.90078 29.1417 8.62745C28.4817 8.35412 27.7743 8.21347 27.06 8.21352H20.7665V6.61352C20.7665 5.79316 20.4406 5.00639 19.8606 4.42626C19.2806 3.84613 18.4939 3.52015 17.6735 3.52002H3.5935C2.77305 3.52002 1.98621 3.84594 1.40607 4.42608C0.825921 5.00623 0.5 5.79307 0.5 6.61352L0.5 23.04C0.5 23.238 0.578649 23.4279 0.718645 23.5679C0.858641 23.7079 1.04852 23.7865 1.2465 23.7865H3.45C3.4862 25.0454 4.01174 26.2406 4.915 27.1183C5.81826 27.9959 7.02807 28.4869 8.2875 28.4869C9.54693 28.4869 10.7567 27.9959 11.66 27.1183C12.5633 26.2406 13.0888 25.0454 13.125 23.7865H19.29C19.3262 25.0454 19.8517 26.2406 20.755 27.1183C21.6583 27.9959 22.8681 28.4869 24.1275 28.4869C25.3869 28.4869 26.5967 27.9959 27.5 27.1183C28.4033 26.2406 28.9288 25.0454 28.965 23.7865H31.7545C31.9523 23.7863 32.1419 23.7075 32.2817 23.5675C32.4215 23.4276 32.5 23.2378 32.5 23.04V13.6535C32.5 12.9391 32.3593 12.2316 32.0859 11.5715C31.8125 10.9114 31.4117 10.3117 30.9065 9.80652ZM10.6625 26.0025C10.1129 26.5522 9.38962 26.8943 8.61602 26.9706C7.84241 27.0468 7.06631 26.8524 6.41994 26.4206C5.77357 25.9888 5.29694 25.3462 5.07124 24.6023C4.84554 23.8584 4.88475 23.0593 5.18219 22.3411C5.47962 21.6229 6.01688 21.0301 6.70242 20.6636C7.38796 20.2971 8.17936 20.1797 8.94178 20.3313C9.70421 20.4829 10.3905 20.8942 10.8837 21.495C11.3769 22.0959 11.6464 22.8492 11.6465 23.6265C11.6465 24.0678 11.5596 24.5047 11.3908 24.9124C11.222 25.3201 10.9745 25.6905 10.6625 26.0025ZM8.2865 18.7735C7.23135 18.7675 6.20376 19.1102 5.36355 19.7485C4.52333 20.3868 3.91758 21.2849 3.6405 22.303C3.624 22.303 3.61 22.2935 3.5935 22.2935H1.9935V6.61352C1.9935 6.18917 2.16207 5.78221 2.46213 5.48215C2.76219 5.18209 3.16915 5.01352 3.5935 5.01352H17.6735C18.0978 5.01352 18.5048 5.18209 18.8049 5.48215C19.1049 5.78221 19.2735 6.18917 19.2735 6.61352V22.2935H12.98C12.963 22.2935 12.949 22.302 12.9325 22.303C12.6556 21.2848 12.0499 20.3867 11.2096 19.7483C10.3694 19.11 9.34169 18.7673 8.2865 18.7735ZM26.5025 26.0025C25.9529 26.5522 25.2296 26.8943 24.456 26.9706C23.6824 27.0468 22.9063 26.8524 22.2599 26.4206C21.6136 25.9888 21.1369 25.3462 20.9112 24.6023C20.6855 23.8584 20.7248 23.0593 21.0222 22.3411C21.3196 21.6229 21.8569 21.0301 22.5424 20.6636C23.228 20.2971 24.0194 20.1797 24.7818 20.3313C25.5442 20.4829 26.2305 20.8942 26.7237 21.495C27.2169 22.0959 27.4864 22.8492 27.4865 23.6265C27.4865 24.0678 27.3996 24.5047 27.2308 24.9124C27.062 25.3201 26.8145 25.6905 26.5025 26.0025ZM31.0065 22.2935H28.7695C28.5437 21.4889 28.1127 20.7567 27.5187 20.1688C26.9247 19.5809 26.1882 19.1574 25.3813 18.9399C24.5744 18.7224 23.7248 18.7182 22.9158 18.9279C22.1068 19.1376 21.3662 19.5539 20.7665 20.136V9.70652H27.06C28.1067 9.70665 29.1105 10.1226 29.8506 10.8627C30.5907 11.6029 31.0065 12.6068 31.0065 13.6535V22.2935Z" fill="black"/>
</g>
<defs>
<clipPath id="clip0_393_4369">
<rect width="32" height="32" fill="white" transform="translate(0.5)"/>
</clipPath>
</defs>
</svg>
