<svg width="24" height="25" viewBox="0 0 24 25" fill="none" xmlns="http://www.w3.org/2000/svg">
<path d="M19.5791 17.21L19.8191 18.35C20.0465 19.3358 19.8219 20.3712 19.2069 21.1742C18.5919 21.9772 17.6502 22.4633 16.6391 22.4998H7.35927C6.34865 22.4633 5.40693 21.9767 4.79146 21.1742C4.17646 20.3712 3.95146 19.3358 4.17927 18.35L4.41927 17.21C4.69537 15.6669 6.02193 14.5325 7.58943 14.5002H16.4094C17.9769 14.533 19.3035 15.6669 19.5796 17.21H19.5791ZM16.6391 20.99C17.1468 20.9839 17.6249 20.7491 17.939 20.3502V20.36C18.3247 19.8762 18.4747 19.2458 18.3491 18.6402L18.1091 17.5002C17.976 16.6555 17.2635 16.0227 16.409 15.9903H7.58896C6.73443 16.0231 6.02193 16.6555 5.8888 17.5002L5.6488 18.6402C5.52599 19.243 5.67599 19.8687 6.05896 20.3502C6.37349 20.7491 6.85115 20.9844 7.3588 20.99H16.6386H16.6391ZM12.4991 12.5H11.4993C9.29005 12.5 7.49943 10.7094 7.49943 8.50015V5.86015C7.49662 4.96812 7.85005 4.11219 8.48052 3.48125C9.11146 2.85078 9.9674 2.49734 10.8594 2.50015H13.1394C14.0315 2.49734 14.8874 2.85078 15.5183 3.48125C16.1488 4.11172 16.5022 4.96812 16.4994 5.86015V8.50015C16.4994 10.7094 14.7083 12.5 12.4996 12.5H12.4991ZM10.859 4.00015C9.83146 4.00015 8.99896 4.83312 8.99896 5.86015V8.50015C8.99896 9.88109 10.1183 11 11.4988 11H12.4986C13.8791 11 14.9985 9.88062 14.9985 8.50015V5.86015C14.9985 5.36703 14.8026 4.89359 14.4538 4.54484C14.1051 4.19609 13.6321 4.00015 13.1385 4.00015H10.8585H10.859Z" fill="#FFD700"/>
</svg>
