<svg width="18" height="19" viewBox="0 0 18 19" fill="none" xmlns="http://www.w3.org/2000/svg">
<path d="M15.4687 0.478622L0.843686 8.91261C-0.365689 9.61222 -0.249673 11.4017 1.04408 11.9325L5.06244 13.5954V16.5626C5.06244 18.1939 7.14369 18.8653 8.10697 17.5681L9.64681 15.4903L13.5808 17.1146C13.7882 17.1989 14.0062 17.2411 14.2242 17.2411C14.5124 17.2411 14.7972 17.1673 15.0538 17.0232C15.5038 16.77 15.8132 16.32 15.8941 15.8103L17.9824 2.19776C18.1968 0.787997 16.6851 -0.220987 15.4687 0.478622ZM6.74994 16.5626V14.2915L8.03666 14.8224L6.74994 16.5626ZM14.2242 15.5536L8.81712 13.3212L13.746 6.20909C14.1222 5.66417 13.412 5.03136 12.9128 5.46378L5.47728 11.9431L1.68744 10.3751L16.3124 1.93761L14.2242 15.5536Z" fill="#E8E6E3"/>
</svg>
