<svg width="20" height="21" viewBox="0 0 20 21" fill="none" xmlns="http://www.w3.org/2000/svg">
<g id="SVG">
<path id="Vector" d="M8.69141 3.37329L9.55859 2.5061C9.92578 2.13892 10.5195 2.13892 10.8828 2.5061L18.4766 10.0959C18.8438 10.4631 18.8438 11.0569 18.4766 11.4202L10.8828 19.0139C10.5156 19.3811 9.92188 19.3811 9.55859 19.0139L8.69141 18.1467C8.32031 17.7756 8.32812 17.1702 8.70703 16.8069L13.4141 12.3225H2.1875C1.66797 12.3225 1.25 11.9045 1.25 11.385V10.135C1.25 9.61548 1.66797 9.19751 2.1875 9.19751H13.4141L8.70703 4.71313C8.32422 4.34985 8.31641 3.74438 8.69141 3.37329Z" fill="white"/>
</g>
</svg>
